<svg xmlns="http://www.w3.org/2000/svg" width="100" height="100"><path fill="#FFF" fill-rule="evenodd" d="M74 76H28V65h46v11zM31 50.737C31 39.854 39.972 31 51 31s20 8.854 20 19.737V61H31V50.737zm11.189-29.221c.67-.39 1.503-.876 2.096-1.75.599-.88.775-1.884.917-2.691l.04-.222.2.027c.762.103 1.712.233 2.684-.105.95-.33 1.633-1.024 2.182-1.581L50.5 15l.192.194c.549.557 1.231 1.25 2.183 1.581.971.338 1.921.208 2.684.104l.2-.026.039.222c.142.807.318 1.811.917 2.692.593.873 1.427 1.358 2.096 1.749.058.033.123.07.189.11l-.077.175c-.331.752-.744 1.688-.744 2.797 0 .922.286 1.725.573 2.402a22.298 22.298 0 00-8.252-1.58c-2.9 0-5.68.559-8.252 1.58.287-.677.573-1.48.573-2.402 0-1.109-.413-2.045-.744-2.797L42 21.626l.189-.11zm32.668 38.327v-10.08c0-8.41-4.403-15.826-11.054-20.121a3.46 3.46 0 00.15-.375c.481-1.46-.152-2.784-.571-3.66a8.289 8.289 0 01-.29-.652c.059-.17.195-.453.29-.652.419-.876 1.052-2.2.572-3.66-.493-1.497-1.82-2.21-2.697-2.68-.175-.094-.42-.225-.566-.32a9.19 9.19 0 01-.137-.642c-.184-.963-.462-2.418-1.74-3.335-1.27-.913-2.752-.726-3.733-.603a9.512 9.512 0 01-.674.07 10.081 10.081 0 01-.466-.42C53.212 12.031 52.11 11 50.5 11c-1.61 0-2.712 1.031-3.441 1.714-.14.13-.333.311-.466.418a9.408 9.408 0 01-.674-.069c-.981-.123-2.464-.31-3.734.603-1.278.917-1.556 2.373-1.74 3.336-.037.197-.09.472-.136.642-.147.094-.391.225-.566.319-.878.47-2.204 1.183-2.697 2.68-.48 1.46.153 2.784.572 3.66.095.2.23.483.29.652-.06.17-.195.453-.29.652-.42.876-1.052 2.2-.572 3.661.043.132.095.255.15.374-6.65 4.296-11.053 11.71-11.053 20.122v10.079H23V80h55V59.843h-3.143z"/></svg>