<svg xmlns="http://www.w3.org/2000/svg" width="100" height="100"><path fill="#FFF" fill-rule="evenodd" d="M50.479 21.988c.835 0 1.674.038 2.504-.021.26-.019.615-.245.727-.465.643-1.256.179-2.87-1.025-3.771a3.635 3.635 0 00-4.342-.022c-1.216.89-1.668 2.48-1.1 3.771.16.363.361.538.808.518.808-.034 1.618-.01 2.428-.01zM42.005 30c5.686-1.653 11.313-1.628 16.99-.014 0-.942.02-1.764-.016-2.583-.008-.181-.17-.443-.334-.519-5.418-2.508-10.847-2.512-16.27-.014-.159.073-.348.284-.354.437-.034.865-.016 1.732-.016 2.693zM30 42.74c1.112.855 2.188 1.671 3.251 2.502 1.26.985 2.79.996 4.038 0 .418-.334.806-.703 1.215-1.047 2.408-2.025 5.531-2.209 8.137-.444.642.435 1.203.983 1.81 1.467 1.293 1.029 2.805 1.03 4.094-.001.417-.334.803-.706 1.215-1.046 2.45-2.016 5.517-2.18 8.14-.4.642.434 1.2.986 1.807 1.471 1.059.845 2.533 1.028 3.552.323 1.283-.888 2.496-1.874 3.741-2.819-10.397-12.983-30.58-13.005-41-.006zm44 26.575l-.148-.177c-.734.626-1.478 1.238-2.199 1.88-2.565 2.285-5.96 2.52-8.742.556-.613-.432-1.169-.955-1.727-1.463-1.627-1.482-3.276-1.484-4.912.012-.343.313-.686.625-1.033.933-2.537 2.25-5.929 2.47-8.684.523-.672-.474-1.268-1.064-1.892-1.609-1.458-1.275-3.135-1.28-4.588-.003-.385.338-.757.692-1.139 1.034-2.585 2.317-5.975 2.541-8.797.54-.711-.505-1.333-1.14-2.012-1.694-.3-.245-.641-.437-1.127-.763C30.33 77.437 39.246 85.07 50.698 85 62.248 84.929 70.94 77.096 74 69.315zm-49.17-4.116c1.796-.065 3.401.392 4.78 1.51.51.414.997.854 1.496 1.28 1.586 1.355 3.202 1.348 4.792-.023.386-.333.758-.684 1.15-1.011 2.613-2.19 5.966-2.375 8.765-.451.658.452 1.24 1.015 1.853 1.53 1.531 1.287 3.15 1.284 4.682-.016.39-.33.763-.68 1.151-1.01 2.637-2.254 6.028-2.447 8.878-.464.735.511 1.373 1.159 2.083 1.71 1.252.971 2.858.966 4.112-.003.422-.326.817-.69 1.213-1.049 1.383-1.254 2.979-2.007 4.874-2 .435.002.564-.134.657-.542 1.404-6.228.647-12.177-2.278-17.853-.445-.863-.776-1.006-1.642-.494-.682.404-1.28.958-1.888 1.475-2.465 2.093-5.558 2.274-8.202.431-.596-.415-1.12-.932-1.68-1.398-1.302-1.086-2.81-1.097-4.12-.02-.412.34-.798.712-1.207 1.057-2.377 2.01-5.469 2.182-8.02.415-.617-.427-1.163-.956-1.74-1.438-1.334-1.11-2.847-1.114-4.177 0-.391.327-.766.674-1.153 1.007-1.753 1.51-3.773 1.931-6.002 1.422-1.224-.28-2.176-1.034-3.114-1.821-.57-.478-1.19-.916-1.84-1.277-.5-.277-.898-.14-1.212.457a26.132 26.132 0 00-3.01 10.985c-.13 2.557.153 5.07.799 7.59zM48.432 88c-1.22-.19-2.451-.33-3.66-.576-6.221-1.268-11.517-4.218-15.847-8.872-4.13-4.44-6.716-9.664-7.584-15.666-1.2-8.296.772-15.822 5.856-22.486 2.825-3.703 6.379-6.549 10.589-8.547.455-.216.572-.466.562-.941-.033-1.536.001-3.073-.017-4.61-.012-.913.388-1.535 1.21-1.895 1.532-.67 3.066-1.336 4.641-2.021-1.036-3.308-.333-6.184 2.622-8.184 2.37-1.603 4.98-1.603 7.35 0 2.953 2 3.662 4.875 2.62 8.187 1.53.663 3.018 1.315 4.512 1.95.94.399 1.374 1.072 1.346 2.11-.04 1.487.01 2.975-.022 4.463-.011.475.11.722.561.941 6.15 2.986 10.805 7.528 13.78 13.687 3.534 7.315 4.007 14.875 1.362 22.578-2.111 6.149-5.91 11.054-11.243 14.726-4.185 2.88-8.835 4.576-13.915 5.026-.212.018-.42.085-.63.13h-4.093z"/></svg>