<svg xmlns="http://www.w3.org/2000/svg" width="100" height="100"><path fill="#FFF" fill-rule="evenodd" d="M50 60.418L52.588 63 74 41.601 71.417 39 50 60.418zm-8-7.98c.85.863 1.745 1.769 2.528 2.562L66 33.542 63.459 31 42 52.438zM33.315 67c-.1.092-.201.177-.294.27-3.285 3.281-6.57 6.563-9.852 9.847a5.496 5.496 0 00-.483.55 3.28 3.28 0 00.005 4.021c1.286 1.68 3.57 1.762 5.185.155 3.31-3.289 6.603-6.593 9.902-9.892.09-.09.166-.195.222-.262L33.315 67zM53 74.355L30.66 52 28 54.634 50.367 77 53 74.355zM55.449 72c.068-.062.137-.117.198-.18 7.198-7.196 14.426-14.362 21.581-21.601 4.261-4.311 5.678-9.512 4.213-15.397-1.47-5.907-6.381-10.468-12.38-11.536-5.645-1.004-10.5.651-14.549 4.706-7.02 7.03-14.05 14.052-21.075 21.078-.165.166-.319.343-.437.47L55.449 72zM18 78.762c.114-.422.215-.848.343-1.266.386-1.256 1.114-2.293 2.039-3.215 3.183-3.17 6.355-6.352 9.536-9.526.172-.17.383-.302.586-.46l-8.979-8.978c.224-.237.384-.415.553-.583 9.857-9.863 19.714-19.725 29.573-29.587 4.501-4.503 9.914-6.626 16.276-6.056 5.69.51 10.306 3.11 13.849 7.577 2.41 3.041 3.757 6.528 4.126 10.393.016.172.064.341.098.512v2.657c-.034.171-.082.34-.098.513-.472 4.914-2.54 9.06-6.013 12.534L50.215 82.961c-.153.154-.317.297-.527.493l-8.966-8.97c-.174.218-.31.424-.48.595-3.174 3.182-6.357 6.355-9.526 9.541-.938.943-2 1.67-3.279 2.058-.397.12-.801.215-1.202.322h-1.86c-.121-.042-.24-.101-.364-.124-2.036-.38-3.691-1.405-4.763-3.161-.571-.936-.842-2.056-1.248-3.093v-1.86z"/></svg>