<svg xmlns="http://www.w3.org/2000/svg" width="100" height="100"><path fill="#FFF" fill-rule="evenodd" d="M26 54.455A1.485 1.485 0 0024.51 53 1.526 1.526 0 0023 54.523c.008.844.685 1.493 1.54 1.477.857-.017 1.484-.68 1.46-1.545zm3.153 11.078c-.921-.33-1.534-.979-1.95-1.805-.28-.559-.468-1.164-.679-1.754-.265-.743-.869-1.11-1.567-.928-.713.186-1.085.782-.917 1.552.337 1.548.975 2.972 2.185 4.035.618.543 1.387.965 2.156 1.282.794.326 1.61-.332 1.619-1.173-.004-.592-.296-1.012-.847-1.209zM57 35.478c-.018.813.682 1.52 1.507 1.522.822.002 1.497-.689 1.493-1.53A1.464 1.464 0 0058.544 34 1.513 1.513 0 0057 35.478zM79.563 63c.47-1.226.865-2.316 1.307-3.388.183-.444.168-.816-.016-1.264-1.97-4.812-3.908-9.638-5.884-14.447-.303-.737-.378-1.42-.12-2.175.21-.62.378-1.26.488-1.905.15-.888-.292-1.646-.972-1.792-.705-.152-1.402.307-1.68 1.155a15.297 15.297 0 00-.519 1.897c-.142.74-.522 1.259-1.107 1.713A2864.241 2864.241 0 0058.75 52.4c-.188.148-.427.365-.45.571-.128 1.2-.199 2.405-.3 3.758.308-.222.475-.334.634-.458 1.804-1.406 3.607-2.814 5.41-4.222 2.225-1.738 4.447-3.482 6.677-5.214 1.086-.843 1.99-.586 2.528.7.054.13.103.262.156.392 1.928 4.753 3.856 9.507 5.786 14.26.092.227.204.447.372.812zM68.134 50c-.148.076-.218.099-.272.14-4.434 3.432-8.867 6.863-13.293 10.304a.977.977 0 00-.316.515c-.607 2.611-1.156 5.237-1.803 7.837-.934 3.756-.462 7.25 1.86 10.386 2.86 3.861 7.773 4.916 11.974 2.602 2.83-1.558 4.674-4.007 5.908-6.923.979-2.315 1.85-4.677 2.716-7.037.138-.377.115-.9-.03-1.28-.71-1.857-1.485-3.688-2.238-5.528L68.134 50zm-10.977-.958c1.875-1.46 3.605-2.803 5.331-4.15 1.6-1.25 3.214-2.483 4.785-3.768.334-.273.57-.717.745-1.128.202-.474.267-1.006.43-1.5.762-2.32 3.037-3.635 5.203-3.023 2.182.615 3.62 2.957 2.921 5.267-.51 1.688-.227 3.084.438 4.611 1.323 3.039 2.514 6.137 3.762 9.21.105.258.22.513.383.894.256-.652.48-1.192.682-1.74.813-2.197 1.725-4.352 2.112-6.698 1.325-8.033-3.63-16.873-10.99-19.51-3.62-1.298-6.348-.542-8.81 2.443-.196.237-.372.491-.571.725-.567.663-1.375.77-2.007.273-.635-.499-.754-1.315-.233-2.028 3.165-4.336 7.297-6.067 12.535-4.135 5.762 2.126 9.5 6.34 11.681 12.005 1.946 5.053 1.915 10.157-.017 15.232-2.95 7.749-5.895 15.5-8.853 23.246-1.464 3.833-3.749 7.024-7.332 9.099-6.339 3.67-14.057.938-17.112-6.026-1.46-3.326-1.565-6.736-.66-10.237.616-2.383 1.242-4.78 1.605-7.21.336-2.246.316-4.546.473-6.82.302-4.352 1.12-8.609 2.369-12.781.268-.897.973-1.304 1.774-1.076.785.224 1.162.95.945 1.864-.492 2.076-.997 4.148-1.492 6.223-.043.181-.05.372-.097.738zm-16.826 1.492c.224-1.199.383-2.24.623-3.262.123-.523-.008-.88-.306-1.285-2.74-3.718-5.41-7.493-8.216-11.156-1.108-1.446-1.832-2.891-1.553-4.765.024-.16.001-.331-.013-.496-.079-.921-.67-1.597-1.37-1.57-.68.027-1.25.692-1.294 1.575-.035.685-.04 1.373-.012 2.059.028.698-.178 1.27-.59 1.828-3.099 4.207-6.178 8.43-9.258 12.651-.146.2-.356.45-.341.661.094 1.356.244 2.707.391 4.226.248-.322.39-.499.524-.682l9.212-12.598c.982-1.344 1.83-1.342 2.819.01l8.797 12.034c.16.217.326.427.587.77zm-22.723-9.546c.24-.294.383-.459.515-.632 2.092-2.751 4.145-5.534 6.292-8.24.795-1.002 1.302-1.995 1.122-3.296-.048-.354.027-.733.091-1.092.36-2.003 2.15-3.521 4.092-3.49 1.956.032 3.704 1.586 3.984 3.604.1.722.042 1.465.114 2.193.033.342.124.73.324.997 2.39 3.186 4.806 6.352 7.216 9.523.103.134.225.254.395.445.028-.183.048-.267.053-.35.31-4.447.276-8.89-.3-13.313-.309-2.37-.859-4.686-2.056-6.792-1.023-1.799-2.473-3.118-4.557-3.41-1.246-.175-2.576-.197-3.807.037-6.013 1.144-10.058 4.815-12.611 10.26-1.615 3.441-1.724 7.072-1.18 10.767.129.874.199 1.756.313 2.79zM29.383 39c-.113.099-.156.125-.185.163-3.668 4.792-7.34 9.583-10.99 14.389-.165.215-.229.575-.202.855.204 2.159.448 4.314.668 6.471.304 2.975 1.102 5.781 2.976 8.177 2.205 2.818 5.057 4.335 8.713 3.858 4.072-.53 6.717-2.958 8.352-6.587.724-1.606.963-3.316 1.01-5.07.071-2.646.201-5.29.275-7.937.007-.276-.139-.602-.312-.83-2.113-2.792-4.243-5.57-6.37-8.35-1.303-1.705-2.61-3.408-3.935-5.139zM14 33.175c.336-1.539.51-3.134 1.036-4.607 2.632-7.375 7.647-12.293 15.464-14.16 2.234-.534 4.513-.587 6.74.102 3.236 1.002 5.187 3.33 6.485 6.289 1.252 2.853 1.743 5.883 1.983 8.95.31 3.937.455 7.888.016 11.819-.312 2.787-.701 5.581-1.322 8.313-.867 3.81-1.208 7.63-1.145 11.524a16.33 16.33 0 01-.566 4.472c-1.055 3.902-3.383 6.905-7.056 8.769-5.143 2.609-11.108 1.369-14.862-3.038-2.473-2.902-3.646-6.318-4.039-10.042-.554-5.26-1.124-10.518-1.684-15.778-.31-2.911-.61-5.824-.92-8.735-.022-.208-.086-.412-.13-.618v-3.26z"/></svg>