<svg xmlns="http://www.w3.org/2000/svg" height="70" width="70"><g fill-rule="evenodd" fill="none"><path d="M15.344 34.276l.017.02 7.155 5.36c.073.05.528.314 1.146.314V40h.755c.957 0 1.887-.043 2.745-.191.508-.088 1.03-.345 1.051-.355L50.09 28.495c5.866-3.315 4.85-6.277 4.835-6.305-.385-.71-2.467-1.19-4.168-1.19-1.031 0-1.928.162-2.666.482-1.005.437-3.416 1.606-6.337 3.047L27.558 21.53a2.025 2.025 0 00-1.102.12l-3.115 1.412c-.279.127-.45.36-.457.622-.007.264.151.505.423.646l9.24 4.786a3051.63 3051.63 0 00-8.102 4.08l-4.486-1.563a1.322 1.322 0 00-.764-.134c-1.336.184-3.516 1.075-3.608 1.113l-.04.018a1 1 0 00-.203 1.646" fill="#F1F1F1"/><path d="M16 49h38" stroke-width="2" stroke-linecap="round" stroke="#F1F1F1"/></g></svg>