<svg xmlns="http://www.w3.org/2000/svg" width="100" height="100"><path fill="#FFF" fill-rule="evenodd" d="M50.345 71a2.345 2.345 0 010-4.692c4.392 0 7.964-3.57 7.964-7.962a2.345 2.345 0 114.691 0C63 65.323 57.322 71 50.345 71m.155-45C44.31 34.253 33 50.888 33 58.412 33 68.11 40.85 76 50.5 76S68 68.11 68 58.412C68 50.888 56.69 34.252 50.5 26M50 81c-12.13 0-22-10.018-22-22.333 0-11.514 18.1-35.111 20.162-37.764A2.33 2.33 0 0150 20c.717 0 1.394.332 1.838.903C53.902 23.557 72 47.153 72 58.667 72 70.982 62.133 81 50 81"/></svg>