<svg xmlns="http://www.w3.org/2000/svg" width="100" height="100"><path fill="#FFF" fill-rule="evenodd" d="M53.682 28.318a4.5 4.5 0 11-6.363 6.364 4.5 4.5 0 016.363-6.364zM74 70.521C74 76.851 68.766 82 62.333 82H53v-8.095L74 57v13.521zM37.667 82C31.234 82 26 76.85 26 70.521V57l21 16.905V82h-9.333zm4.631-38.883a4.588 4.588 0 01-1.113-6.308c.398-.59.5-1.329.28-2.002a2.317 2.317 0 00-1.41-1.458c-2.356-.863-3.598-3.39-2.826-5.756.772-2.364 3.266-3.672 5.687-3a2.31 2.31 0 002.001-.356 2.305 2.305 0 00.956-1.783A4.617 4.617 0 0150.5 18a4.617 4.617 0 014.627 4.454c.027.71.38 1.368.956 1.783a2.34 2.34 0 002 .355c2.431-.676 4.916.637 5.688 3.001.772 2.367-.47 4.893-2.825 5.756-.67.244-1.19.782-1.41 1.458a2.302 2.302 0 00.279 2.002 4.591 4.591 0 01-1.113 6.31 4.644 4.644 0 01-6.374-.9 2.33 2.33 0 00-1.828-.883 2.33 2.33 0 00-1.828.883 4.637 4.637 0 01-6.374.898zm34.369 7.107a2.34 2.34 0 00-2.477.298L52.333 68.245v-20.61c1.022.37 2.085.601 3.17.601a9.332 9.332 0 005.469-1.768 9.157 9.157 0 003.374-10.348c3.215-2.292 4.69-6.424 3.407-10.336-1.283-3.913-5.043-6.284-8.887-6.377C57.661 15.667 54.152 13 50 13c-4.152 0-7.66 2.667-8.866 6.407-3.933.03-7.604 2.463-8.887 6.377-1.283 3.912.192 8.044 3.407 10.336a9.153 9.153 0 003.374 10.346c2.606 1.877 5.829 2.192 8.639 1.177v20.602L25.81 50.522a2.343 2.343 0 00-2.477-.298A2.31 2.31 0 0022 52.312v18.5C22 79.737 29.328 87 38.333 87h23.334C70.672 87 78 79.737 78 70.812v-18.5a2.31 2.31 0 00-1.333-2.088z"/></svg>