<svg xmlns="http://www.w3.org/2000/svg" width="100" height="100"><path fill="#FFF" fill-rule="evenodd" d="M82.45 34.571c-3.975 0-7.21 3.205-7.21 7.143v8.571c0 10.067-8.979 18.572-19.607 18.572H44.099c-4.108 0-7.8 2.26-9.636 5.9l-.304.603a1.422 1.422 0 00.645 1.917 1.448 1.448 0 001.934-.639c.168-.221 1.26-3.44 5.038-4.582l-4.71 11.019-.01.027a1.445 1.445 0 01-1.831.812c-8.116-3.97-7.627-3.737-7.725-3.775a1.42 1.42 0 01-.483-2.337c.05-.05 3.061-3.43 15.64-17.538a21.108 21.108 0 0013.995-6.112 1.42 1.42 0 000-2.02 1.451 1.451 0 00-2.039 0c-6.417 6.36-14.036 5.153-14.884 5.296-6.332 0-12.117-3.177-15.475-8.498l-.921-1.462 1.04.403c6.601 2.552 14.844 1.642 20.526-2.111a1.42 1.42 0 00.4-1.981 1.45 1.45 0 00-2-.396c-4.99 3.297-12.175 4.03-17.878 1.826l-4.647-1.796L17 37.428h8.577a45.08 45.08 0 007.127-.57c4.848-.776 6.885-1.834 8.77-2.136a11.79 11.79 0 017.885 1.5l11.3 6.717a1.45 1.45 0 001.977-.49 1.421 1.421 0 00-.494-1.96l-2.05-1.219c10.129-11.296 9.587-10.684 9.656-10.774A6.345 6.345 0 0174.784 26c2.4 0 4.558 1.321 5.63 3.449L83 34.571h-.55zM38 19c3.89 4.769 8.701 8.22 13.632 9.694l7.133 2.133c1.39.416 2.563 1.417 3.235 2.755L58.249 38l-6.59-4.139c-2.855-1.792-6.253-2.505-9.624-1.934-1.06.18-1.736.405-2.567.687A35.028 35.028 0 0138 22.558V19zm48.847 15.9l-3.637-7.273a9.15 9.15 0 00-8.23-5.088 9.246 9.246 0 00-7.324 3.631l-4.083 4.595a8.337 8.337 0 00-4.523-3.22l-7.303-2.087c-5.59-1.598-11.057-5.904-14.998-11.814a1.446 1.446 0 00-2.648.801v7.79c0 3.619.543 7.189 1.614 10.633a41.52 41.52 0 01-10.064 1.234H14.445a1.445 1.445 0 00-1.225 2.211l8.654 13.848a21.182 21.182 0 0017.044 9.934L25.016 75.83c-2.142 2.19-1.397 5.855 1.432 7.033l7.654 3.78c.034.017.068.032.103.046a4.341 4.341 0 005.63-2.4l5.341-12.61h10.605c12.222 0 22.547-9.928 22.547-21.68v-8.672a4.34 4.34 0 014.336-4.336h2.89a1.445 1.445 0 001.293-2.091zM70.5 49a1.5 1.5 0 00-1.5 1.5C69 57.944 62.944 64 55.5 64a1.5 1.5 0 100 3C64.598 67 72 59.598 72 50.5a1.5 1.5 0 00-1.5-1.5zm-20 15a1.5 1.5 0 100 3 1.5 1.5 0 000-3zm25-35a1.5 1.5 0 10.001 3.001A1.5 1.5 0 0075.5 29z"/></svg>