<svg xmlns="http://www.w3.org/2000/svg" width="100" height="100"><path fill="#FFF" d="M87 15.233v-.003c-.005-.294.038-2.24-2.23-2.23h-9.096a2.265 2.265 0 000 4.53h3.592l-8.42 8.42a17.939 17.939 0 00-9.029-2.418A17.96 17.96 0 0050 27.938a17.959 17.959 0 00-11.817-4.406c-4.89 0-9.488 1.94-12.942 5.462-7.102 7.242-7.102 19.025 0 26.267l8.068 8.226-4.899 4.9-4.58-2.291a2.265 2.265 0 00-2.026 4.052l3.23 1.615-4.175 4.174-4.58-2.29a2.265 2.265 0 00-2.026 4.052l3.23 1.615-3.819 3.818a2.265 2.265 0 103.204 3.204l3.818-3.818 1.615 3.23a2.265 2.265 0 104.052-2.027l-2.29-4.58 4.174-4.174 1.615 3.23a2.265 2.265 0 104.052-2.027l-2.29-4.58 4.868-4.868 6.764 6.896A9.396 9.396 0 0050 76.468a9.396 9.396 0 006.755-2.85l18.004-18.357c7.102-7.242 7.102-19.025 0-26.267-.09-.092-.182-.184-.275-.274l7.985-7.986v3.592a2.265 2.265 0 004.531 0v-9.093zM71.97 52.095l-17.959 18.41A4.875 4.875 0 0150.501 72a4.87 4.87 0 01-3.512-1.495l-17.96-18.41c-5.372-5.509-5.372-14.471 0-19.98C31.62 29.463 35.059 28 38.714 28c3.655 0 7.094 1.462 9.683 4.116.13.133.263.28.413.444.825.903 2.538.96 3.382 0 .147-.167.284-.311.413-.444C55.194 29.462 58.632 28 62.287 28c1.983 0 3.903.43 5.658 1.248l-8.048 8.091a8.241 8.241 0 00-1.865-.213 2.266 2.266 0 00-2.26 2.272 2.266 2.266 0 002.26 2.272c2.076 0 3.766 1.699 3.766 3.786a2.266 2.266 0 002.26 2.272 2.266 2.266 0 002.26-2.272c0-2.25-.893-4.294-2.34-5.794l7.748-7.79c.082.08.164.161.244.244 5.373 5.508 5.373 14.47 0 19.979z"/></svg>