<svg xmlns="http://www.w3.org/2000/svg" width="100" height="100"><path fill="#FFF" fill-rule="evenodd" d="M52.193 62.989v.426c0 3.311.015 6.623-.015 9.933-.005.55.188.763.675.915 4.295 1.335 8.405.89 12.138-1.613 2.417-1.622 4.629-3.558 6.91-5.383.69-.552 1.305-1.2 2.015-1.862-.398-.208-.593-.307-.785-.41-2.163-1.166-2.292-3.235-.33-4.724a178.42 178.42 0 004.47-3.54c.59-.478 1.13-1.02 1.796-1.628-.44-.06-.71-.063-.96-.137-.647-.193-1.337-.324-1.918-.649-1.343-.751-1.556-2.467-.54-3.819 1.808-2.408 3.505-4.886 4.604-7.72.3-.776.476-1.6.747-2.536-.413.168-.635.266-.862.349-3.354 1.212-6.707 2.43-10.065 3.63-1.032.369-2.025.309-2.842-.515-.81-.817-.862-1.787-.547-2.861.675-2.298 1.013-4.65.79-7.046-.103-1.097-.388-2.178-.607-3.36-1.192 1.04-2.195 1.967-3.252 2.825-1.801 1.463-3.793.729-4.292-1.55-.784-3.573-1.79-7.071-3.464-10.338-1.035-2.022-2.256-3.891-4.237-5.131-.482-.302-.915-.357-1.321.018-.942.871-1.969 1.684-2.755 2.685-1.429 1.818-2.366 3.943-3.071 6.138-.725 2.255-1.32 4.555-1.921 6.849-.516 1.966-2.501 2.704-4.092 1.468-.385-.299-.76-.611-1.128-.931-.722-.627-1.436-1.264-2.26-1.99-.199.837-.414 1.539-.527 2.257-.444 2.817-.053 5.569.722 8.28.294 1.03.155 1.952-.618 2.71-.753.74-1.669.874-2.637.535-3.412-1.195-6.818-2.407-10.225-3.615-.236-.084-.466-.185-.789-.315a11.2 11.2 0 001.531 4.375 106.054 106.054 0 003.741 5.776c1.149 1.664.691 3.45-1.198 4.146-.652.24-1.351.347-2.029.515l-.165.167c.19.11.397.196.566.333 1.97 1.593 3.918 3.214 5.904 4.787 1.6 1.267 1.507 3.347-.243 4.379-.303.179-.615.345-.93.521 2.002 2.493 7.353 6.803 10.14 8.141 3.486 1.675 7.078 1.928 10.773.776.472-.147.637-.354.632-.868-.027-3.04-.013-6.082-.013-9.124v-1.485c-.295-.042-.536-.061-.77-.112-1.868-.406-3.807-.615-5.588-1.265-5.433-1.985-9.515-5.593-12.06-10.881-.404-.839-.197-1.547.483-1.879.684-.333 1.274-.003 1.765.8.865 1.411 1.667 2.896 2.735 4.14 3.505 4.085 8.01 6.225 13.342 6.644.037-.115.078-.183.079-.251.005-3.311.013-6.622-.011-9.933-.002-.17-.257-.407-.448-.498-1.222-.582-2.534-1.009-3.675-1.718-2.341-1.455-4.197-3.482-5.898-5.64a45.23 45.23 0 01-2.17-3.04c-.419-.63-.234-1.367.338-1.746.587-.39 1.253-.25 1.724.373.176.234.325.488.492.73 1.787 2.589 3.798 4.972 6.33 6.856.992.739 2.044 1.38 3.33 1.675V25.255c0-.245-.016-.492.012-.735.074-.656.598-1.145 1.214-1.156.644-.011 1.188.501 1.248 1.191.021.244.01.49.01.736v21.816c.66-.282 1.229-.482 1.758-.76 1.769-.927 3.279-2.214 4.573-3.717 1.335-1.55 2.544-3.212 3.8-4.832.501-.648 1.175-.805 1.777-.387.56.389.683 1.094.306 1.765-.048.085-.103.166-.157.247-1.536 2.309-3.258 4.46-5.29 6.346-1.768 1.639-3.679 3.071-6.05 3.68-.617.159-.732.413-.727.987.026 2.992.012 5.985.012 8.977v.742c.174.025.223.042.27.037 7.168-.695 12.497-4.187 15.878-10.641.102-.194.186-.408.326-.57.414-.48.933-.623 1.504-.317.558.3.781.8.632 1.422-.067.28-.212.547-.345.807-2.612 5.085-6.613 8.614-11.934 10.521-1.994.715-4.124 1.039-6.33 1.575zM50.86 13c3.849 1.541 5.823 4.786 7.456 8.316 1.335 2.886 2.227 5.923 2.91 9.025.048.213.108.423.202.789 1.061-.943 2.03-1.85 3.053-2.69.418-.342.926-.667 1.442-.779 1.252-.27 2.304.381 2.765 1.6 1.084 2.868 1.1 5.823.637 8.8-.171 1.101-.445 2.186-.694 3.386.515-.146.98-.248 1.422-.408 3.061-1.107 6.128-2.198 9.169-3.357 1.04-.397 1.983-.476 2.88.24.913.728 1.016 1.703.807 2.783-.535 2.76-1.838 5.176-3.339 7.497-.753 1.165-1.58 2.281-2.468 3.553.556.108 1.055.26 1.56.293 1.168.077 2.005.608 2.391 1.714.392 1.121.022 2.07-.865 2.808-2.003 1.665-4.02 3.312-6.033 4.966-.185.151-.376.294-.618.484.4.215.746.386 1.079.582 1.38.814 1.752 2.604.68 3.769-3.206 3.482-6.797 6.52-11 8.717-3.776 1.974-7.796 2.266-11.912 1.162-.183-.049-.369-.087-.637-.15v.85c0 3.124-.018 6.249.013 9.373.008.767-.212 1.327-.9 1.677h-.73c-.665-.372-.89-.933-.884-1.696.029-3.366.013-6.732.013-10.195-.588.131-1.116.258-1.647.368-4.42.914-8.559.202-12.385-2.21a47.653 47.653 0 01-9.134-7.482c-1.527-1.604-1.236-3.407.72-4.405.215-.11.425-.229.626-.338-1.652-1.321-3.294-2.614-4.911-3.936-.66-.538-1.28-1.127-1.896-1.717-.778-.746-1.018-1.662-.644-2.675.37-1.006 1.126-1.544 2.206-1.643.544-.05 1.082-.173 1.769-.288-.263-.36-.427-.589-.594-.815-2.058-2.794-3.975-5.668-4.968-9.049-.144-.49-.237-.995-.337-1.496-.196-.99.05-1.85.844-2.494.813-.658 1.704-.704 2.675-.33a511.788 511.788 0 007.98 3.005c.903.33 1.842.562 2.774.842-.285-1.623-.633-3.161-.811-4.72-.287-2.496-.13-4.97.76-7.355.704-1.883 2.678-2.367 4.172-1.024 1.01.907 2.03 1.803 3.114 2.764.38-1.471.7-2.819 1.077-4.15.76-2.68 1.73-5.28 3.083-7.72 1.508-2.718 3.41-5.042 6.398-6.241h.73z"/></svg>