<svg xmlns="http://www.w3.org/2000/svg" width="100" height="100"><path fill="#FFF" fill-rule="evenodd" d="M50.474 37C43.044 37 37 43.044 37 50.474a2.526 2.526 0 005.053 0c0-4.644 3.777-8.421 8.42-8.421a2.526 2.526 0 000-5.053m.027 32C40.3 69 32 60.701 32 50.5S40.3 32 50.5 32 69 40.3 69 50.5 60.701 69 50.5 69m.5-41c-12.682 0-23 10.318-23 23s10.318 23 23 23 23-10.318 23-23-10.318-23-23-23M37.666 74.324c-1.275-.667-2.906-.271-3.642.882l-2.666 4.177c-.737 1.153-.3 2.628.976 3.294 1.274.665 2.905.27 3.642-.883l2.666-4.177c.737-1.153.3-2.628-.976-3.293m31-56c-1.275-.667-2.906-.271-3.642.882l-2.666 4.177c-.737 1.153-.3 2.628.976 3.293 1.274.666 2.905.272 3.642-.882l2.666-4.177c.737-1.153.3-2.627-.976-3.293m-41.99 45.01c-.665-1.276-2.14-1.713-3.293-.976l-4.177 2.666c-1.153.736-1.548 2.367-.883 3.642.667 1.276 2.142 1.712 3.294.976l4.177-2.666c1.153-.736 1.548-2.367.883-3.643m56-31c-.666-1.275-2.14-1.712-3.294-.975l-4.177 2.666c-1.153.736-1.548 2.367-.883 3.642.667 1.276 2.142 1.712 3.294.976l4.177-2.666c1.153-.736 1.548-2.367.883-3.642m-56.883 1.69l-4.177-2.666c-1.153-.737-2.628-.3-3.294.976-.665 1.275-.27 2.906.883 3.642l4.177 2.666c1.152.736 2.627.3 3.294-.976.665-1.275.27-2.906-.883-3.642m56 31l-4.177-2.666c-1.153-.737-2.628-.3-3.294.976-.665 1.275-.27 2.906.883 3.642l4.177 2.666c1.152.736 2.627.3 3.294-.976.665-1.275.27-2.906-.883-3.642M38.642 23.383l-2.666-4.177c-.736-1.153-2.367-1.548-3.642-.883-1.276.666-1.713 2.141-.976 3.294l2.666 4.177c.737 1.154 2.368 1.548 3.642.883 1.276-.666 1.713-2.141.976-3.294m31 56l-2.666-4.177c-.736-1.153-2.367-1.548-3.642-.883-1.276.666-1.713 2.141-.976 3.294l2.666 4.177c.737 1.154 2.368 1.548 3.642.883 1.276-.666 1.713-2.141.976-3.294M51 13c-1.657 0-3 1.007-3 2.25v4.5c0 1.242 1.343 2.25 3 2.25s3-1.007 3-2.25v-4.5c0-1.243-1.343-2.25-3-2.25m0 66c-1.657 0-3 1.007-3 2.25v4.5c0 1.242 1.343 2.25 3 2.25s3-1.008 3-2.25v-4.5c0-1.243-1.343-2.25-3-2.25m34.75-31h-4.5C80.008 48 79 49.343 79 51s1.007 3 2.25 3h4.5c1.242 0 2.25-1.343 2.25-3s-1.007-3-2.25-3m-66 0h-4.5C14.007 48 13 49.343 13 51s1.007 3 2.25 3h4.5c1.242 0 2.25-1.343 2.25-3s-1.008-3-2.25-3"/></svg>