<svg width="255" height="40" xmlns="http://www.w3.org/2000/svg" xmlns:xlink="http://www.w3.org/1999/xlink"><defs><path id="a" d="M0 40h255V0H0z"/></defs><g fill="none" fill-rule="evenodd"><path d="M248.662 8.889l-.017.011c2.958 2.91 4.905 6.837 5.219 11.244.69 9.737-6.815 18.18-16.762 18.861a18.292 18.292 0 01-12.48-3.772l-.014.021a18.25 18.25 0 0013.579 4.701c9.955-.677 17.46-9.12 16.769-18.851-.356-4.932-2.735-9.253-6.294-12.215m-31.777 20.333c-.602.359-.735.897-.427 1.73.285.75.733 1.088 1.203.88.385-.16.45-.516.296-1.426l-.068-.353c-.153-.896-.183-1.285-.085-1.665.105-.438.335-.715.69-.875.858-.358 1.668.208 2.15 1.487.52 1.384.246 2.436-.78 2.884l-.25-.679c.708-.32.888-1.026.505-2.04-.312-.821-.797-1.187-1.317-.965-.42.179-.512.59-.358 1.525l.057.394.054.344c.116.69.13.937.064 1.236-.082.368-.303.64-.66.79-.805.34-1.583-.166-2.015-1.323-.47-1.257-.216-2.188.686-2.623l.255.68m.177-7.21l2.997-2.754.02 1.016-2.538 2.302.822.988 1.784-.043.013.808-5.09.114-.016-.794 2-.049h.535l-.169-.207-.177-.193-2.245-2.66-.027-1.058zm1.807-6.889l2.032.752-.247.75-2.035-.75-3.648 1.161.305-.92 2.268-.67.274-.076c.116-.038.185-.052.388-.099a8.256 8.256 0 01-.411-.548l-1.395-1.997.292-.875 2.177 3.272m2.81-7.894l-1.107 1.246 3.294 2.487-.79.889-3.3-2.482-1.09 1.239-.75-.568 2.992-3.374zm6.818-4.263L226.06 4.33l.518.857 2.244-1.259.41.69-2.23 1.248.592.987 2.487-1.398.457.738-3.493 1.955-2.437-3.997 3.44-1.929zm5.624-.654a8.268 8.268 0 01-.577-1.07 9.3 9.3 0 01-.228 1.192l-.226 1 1.567-.25-.536-.872zm3.088 2.698l-1.41.094-.7-1.144-2.175.345-.3 1.288-1.345.332L232.7.2l1.33-.2 3.18 5.01zm7.655.915l-1.007-.368.384-1.386c.038-.156.105-.38.185-.665.079-.29.153-.515.198-.68.068-.185.128-.375.19-.58l.108-.327c-.28.47-.392.633-.65 1.008a5.38 5.38 0 01-.295.428l-1.349 1.848-.869-.23-.273-2.212c-.021-.113-.028-.272-.043-.497-.015-.288-.027-.51-.037-.663-.004-.122-.004-.306-.004-.562l-.117.562c-.14.61-.207.872-.395 1.602l-.396 1.491-1.06-.161L240.632 0l1.598.3.227 2.152c.055.502.07.922.049 1.517.182-.342.243-.454.448-.765l.373-.552L244.58.905l1.526.502-1.241 4.519" fill="#FEFEFE"/><path d="M243.692 20.773c1.322-.875 2.426-1.336 3.113-1.311.405.009.891.133.891.616 0 .503-.491.922-1.449 1.258-.842.291-2.134.365-3.542.21.387-.337.713-.6.987-.773m-18.63 1.58c-.821-.055-1.222-.377-1.222-.993 0-.077.056-2.036 4.66-2.261a11.988 11.988 0 012.006.058c-.04 0-.527.438-.527.438l-.288.252c-1.104.98-2.967 2.618-4.629 2.506m9.959-7.39c-.553.477-1.657 1.507-2.724 2.5l-1.212 1.127a16.818 16.818 0 00-2.956-.258c-2.238 0-4.286.598-5.219 1.528-.353.356-.54.741-.525 1.142.023 1.054 1.263 1.585 1.638 1.727 1.987.716 3.65.505 5.405-.688.965-.657 2.127-1.706 3.038-2.56.708.159 1.511.364 2.373.61l.79.225c-1.028.984-2.087 2.025-3.065 2.863l-.074.063c-1.365 1.172-2.35 2.009-3.779 2.322-1 .212-1.709.006-1.944-.127-.026.005-.053.04-.053.04.82.662 1.604 1.033 2.947.922 1.28-.11 2.754-.888 4.265-2.266l2.04-1.942 1.429-1.375a479.05 479.05 0 002.943.835c-.027 0-1.792 1.689-1.792 1.689l-1.53 1.485c-1.574 1.482-2.43 2.246-3.352 2.883-1.52 1.044-2.819 1.589-3.966 1.664-.59.04-1.45-.004-2.163-.403-.032-.01-.07.026-.07.026.768.647 1.727 1.418 3.36 1.374 1.852-.056 3.496-.917 6.052-3.193 1.164-1.037 2.32-2.198 3.34-3.224l1.895-1.87c1.252.271 2.367.383 3.602.359 1.8-.038 3.338-.871 3.355-1.832.016-.708-.583-1.087-.94-1.308a4.157 4.157 0 00-2.212-.627c-1.345 0-2.755.58-4.182 1.721l-.95.82a4.65 4.65 0 00-.346-.095l-2.64-.725c.78-.704 1.445-1.308 2.035-1.826 1.452-1.251 3.047-1.766 3.982-1.824.684-.048 1.87.014 2.356.351.024-.004.055-.052.055-.052-1.303-1.08-2.426-1.223-3.356-1.223-.91 0-2.378.279-4.177 1.628-.73.556-1.678 1.48-2.678 2.46 0-.01-1.335-.401-1.335-.401l-.323-.1-1.407-.416c.037 0 .804-.733.804-.733.949-.897 1.839-1.75 2.54-2.329 2.534-2.069 4.127-2.34 5.235-2.346 1.214-.004 2.182.24 2.872.724.017-.005.047-.045.047-.045-1.417-1.253-2.443-1.654-4.206-1.67-1.555-.011-3.411.831-5.222 2.37m11.596-12.3c.06.034.159.101.199.025.027-.051-.033-.096-.084-.124l-.126-.07-.07.125.08.044zm.067.412l-.082-.044-.023-.302-.08-.043-.122.22-.066-.038.264-.478.208.116c.084.046.158.116.1.218-.052.097-.136.093-.223.051l.024.3zm.291-.149a.419.419 0 00-.168-.57.418.418 0 00-.572.163.426.426 0 00.169.573.42.42 0 00.571-.166zm-.832-.4a.5.5 0 01.655-.264c.26.11.376.401.264.66a.489.489 0 01-.654.256.5.5 0 01-.265-.652zM68.39 23.741l2.286-10.038h.3l2.36 10.038H68.39zm6.82-14.852h-8.393l-6.032 23.704h5.77l1.086-4.519h6.444l1.087 4.519h6.369L75.21 8.889zm10.817 3.704c-.899 0-1.624-.268-2.175-.801-.553-.534-.829-1.255-.829-2.163 0-.933.276-1.66.829-2.181.55-.52 1.276-.781 2.175-.781.847 0 1.546.261 2.098.78.554.522.828 1.249.828 2.182 0 .908-.274 1.629-.828 2.163-.552.533-1.251.8-2.098.8m19.976 20.001V8.889h13.27v4.259h-7.86v5.333h7.138v4.223h-7.138v5.556h7.933v4.333z" fill="#FEFEFE"/><mask id="b" fill="#fff"><use xlink:href="#a"/></mask><path fill="#FEFEFE" mask="url(#b)" d="M83.023 32.593h5.93V14.815h-5.93zm58.561-1.482V13.753h3.401l.674 2.87h.105c.403-1.134 1.034-1.99 1.896-2.57.862-.578 2.049-.807 3.56-.69v5.066l-4.747.532v12.15h-4.889zm-48.924 0V13.753h3.4l.639 2.87h.105c.402-1.134 1.035-1.99 1.896-2.57.862-.578 2.06-.807 3.597-.69v5.066l-4.748.46v12.222h-4.89zm70.52-4.887c-.528.848-1.296 1.271-2.304 1.271-1.008 0-1.781-.423-2.322-1.27-.54-.849-.81-2.047-.81-3.595 0-1.574.27-2.79.81-3.65.54-.86 1.314-1.29 2.322-1.29s1.776.43 2.304 1.29c.528.86.792 2.076.792 3.65 0 1.548-.264 2.746-.792 3.594m3.672-10.295c-1.44-1.73-3.432-2.596-5.976-2.596s-4.542.866-5.994 2.596c-1.452 1.731-2.179 3.964-2.179 6.7 0 2.711.727 4.926 2.18 6.645 1.451 1.718 3.449 2.578 5.993 2.578 2.544 0 4.535-.86 5.976-2.578 1.44-1.719 2.16-3.934 2.16-6.644 0-2.737-.72-4.97-2.16-6.7m13.938 10.755c-.547.728-1.199 1.093-1.954 1.093-.439 0-.854-.05-1.242-.148-.39-.1-.817-.348-1.28-.741v-7.814c.39-.42.81-.717 1.261-.89.451-.172.92-.26 1.406-.26.902 0 1.566.359 1.993 1.075.427.716.639 1.913.639 3.592 0 2-.273 3.365-.823 4.093m4.24-11.092c-1.183-1.507-2.772-2.26-4.768-2.26-.877 0-1.7.216-2.467.649-.767.432-1.42 1.129-1.956 2.092h-.108l-.55-2.333h-3.946v24.037h5.08v-6.63c.681.493 1.327.808 1.936.944a8.026 8.026 0 001.754.203c1.949 0 3.569-.765 4.861-2.296 1.29-1.53 1.936-4.025 1.936-7.481 0-3.11-.59-5.42-1.772-6.925m14.487 10.979a7.233 7.233 0 01-1.35.994 3.13 3.13 0 01-1.572.417c-.584 0-1.04-.163-1.37-.489-.327-.326-.49-.754-.49-1.284 0-.796.333-1.387 1.003-1.773.669-.386 1.612-.578 2.83-.578h.949v2.713zm3.342-11.684c-1.156-1.036-3.062-1.555-5.715-1.555a15.25 15.25 0 00-3.104.325 27.27 27.27 0 00-3.433.978l.84 3.616c.975-.338 1.869-.59 2.684-.759.815-.17 1.528-.253 2.136-.253 1.194 0 2.033.204 2.52.614.487.41.73.94.73 1.592v1.013h-1.643c-2.702 0-4.73.537-6.078 1.609-1.353 1.074-2.029 2.587-2.029 4.54 0 1.543.506 2.803 1.516 3.78 1.01.977 2.344 1.464 3.998 1.464.975 0 1.869-.21 2.684-.633.816-.42 1.552-1.079 2.21-1.97h.109l.585 2.205h3.724V20.207c0-2.509-.578-4.281-1.734-5.32zm-75.111 17.705c-1.644 0-2.96-.522-3.95-1.565-.992-1.043-1.487-2.82-1.487-5.333v-10.88h5.075v9.99c0 1.233.193 2.122.58 2.667.387.545.954.82 1.704.82.531 0 1.002-.133 1.413-.393.411-.26.737-.687.978-1.28V14.815h5.076v17.422h-3.842l-.544-2.275h-.11c-.82 1.019-1.606 1.712-2.355 2.08-.75.367-1.594.55-2.538.55M25.385 10.682a25.789 25.789 0 01-1.014 3.223c-.81 2.07-1.412 4.018-1.804 5.846-.392 1.827-.588 3.412-.588 4.755 0 1.128.027 2.022.08 2.681a13.1 13.1 0 00.244 1.713l-5.069 2.942a10.33 10.33 0 01-1.601.786 4.363 4.363 0 01-1.562.302c-1.615 0-2.863-.94-3.745-2.82-.882-1.883-1.324-4.06-1.324-6.53 0-5.778 1.363-10.467 4.09-14.068 2.725-3.6 5.633-5.401 8.724-5.401 1.38 0 2.38.349 3.002 1.047.621.7.932 1.626.932 2.782 0 .807-.121 1.72-.365 2.742m13.909 8.068l-3.974 2.66v4.313l14.477-8.995c2.163-1.371 3.67-2.735 4.522-4.092.85-1.356 1.277-2.72 1.277-4.091 0-2.929-.933-5.085-2.798-6.47C50.932.693 48.202 0 44.606 0c-2.27 0-4.622.504-7.055 1.511C35.117 2.52 33.05 3.748 31.346 5.2c-1.324-1.693-2.764-2.983-4.319-3.87C25.473.444 23.534 0 21.207 0 15.18 0 10.145 2.586 6.105 7.758 2.062 12.931.026 18.595 0 24.748c.026 5.213.994 8.934 2.9 11.165 1.905 2.23 4.372 3.346 7.4 3.346 2.028 0 4.129-.538 6.306-1.613 2.176-1.074 4.562-2.7 7.157-4.877 1.055 2.23 2.528 3.87 4.42 4.918 1.892 1.047 4.19 1.572 6.894 1.572 3.839 0 7.326-1.062 10.462-3.184 3.137-2.124 5.866-4.274 8.192-6.45l-1.988-3.063-3.77 2.78c-1.434 1.049-3.055 2.016-4.867 2.904-1.812.886-3.595 1.329-5.352 1.329-2.25 0-3.9-.94-4.952-2.82-1.051-1.881-1.578-4.315-1.578-7.297 0-5.32 1.184-9.875 3.553-13.663 2.367-3.789 5.144-5.684 8.329-5.684 1.707 0 2.85.443 3.43 1.33.578.887.868 1.868.868 2.942 0 2.081-.53 3.778-1.59 5.094-1.06 1.316-3.232 3.074-6.52 5.273"/></g></svg>