<svg xmlns="http://www.w3.org/2000/svg" width="100" height="100"><path fill="#FFF" fill-rule="evenodd" d="M50.48 26.02c-2.738 0-5.477-.03-8.214.014-1.33.021-2.287 1.157-2.266 2.521.021 1.31 1.009 2.424 2.286 2.43 5.477.024 10.955.015 16.432.003.814-.002 1.448-.432 1.887-1.14 1.025-1.652-.054-3.782-1.987-3.82-2.711-.054-5.425-.014-8.137-.014v.007zm-.27 40.99l-.412-.01c-.88 2.024-1.82 4.022-2.619 6.08-.482 1.244.05 2.578 1.098 3.344 1.067.78 2.443.767 3.498-.034 1.03-.782 1.525-2.11 1.034-3.368-.795-2.034-1.726-4.012-2.6-6.013zM41.852 72c1.324-3.933 3.32-7.305 5.376-10.645 1.265-2.055 3.32-2.063 4.581-.02 2.07 3.354 4.069 6.745 5.39 10.657.157-.39.27-.654.37-.922.803-2.158.38-4.232-.416-6.285-1.998-5.156-4.698-9.948-7.517-14.68-.02-.032-.092-.034-.295-.105-1.7 3.162-3.507 6.302-5.092 9.551-1.148 2.355-2.08 4.826-2.958 7.3-.6 1.688-.203 3.381.56 5.149zM82 77V23H19v53.988h4.429V59.37c0-7.447-.001-14.894.002-22.341 0-1.264.532-2.155 1.577-2.496.47-.153 1.001-.17 1.505-.17 15.959-.008 31.918.012 47.878-.03 1.926-.006 3.201.863 3.19 3.174-.06 12.834-.029 25.668-.029 38.503V77H82zM28 39v37.987h11.633c-.2-.283-.339-.475-.475-.67-1.568-2.235-2.413-4.703-2.467-7.444-.045-2.293.704-4.394 1.55-6.458 2.536-6.192 5.945-11.922 9.487-17.577 1.27-2.029 3.314-2.026 4.566.039 1.86 3.066 3.709 6.14 5.462 9.267 1.858 3.313 3.526 6.722 4.767 10.327 1.502 4.36.805 8.36-1.847 12.075-.096.134-.154.295-.234.454H72V39H28zm63 39.935v1.272C90.361 81.575 89.285 82 87.782 82c-25.187-.033-50.375-.033-75.562 0-1.506.002-2.58-.427-3.22-1.793v-1.272c.894-2.216 2.877-1.75 4.678-1.782V22.867c-1.826-.026-3.806.408-4.678-1.822v-1.272c.675-1.387 1.802-1.775 3.316-1.773 25.123.032 50.246.032 75.37 0 1.513-.002 2.639.387 3.314 1.773v1.272c-.87 2.274-2.918 1.758-4.686 1.833v54.275c1.81.031 3.792-.434 4.686 1.782z"/></svg>