<svg xmlns="http://www.w3.org/2000/svg" width="100" height="100"><path fill="#FFF" fill-rule="evenodd" d="M24.313 59.33c.193 1.403.504 2.788.811 4.167.187.841.668 1.387 1.46 1.488.734.094 1.269-.261 1.635-.97.342-.664.193-1.339.034-2.03-1.144-4.974-1.308-9.936.305-14.825.977-2.96 2.528-5.342 5.275-6.432.972-.385 1.397-1.54 1.045-2.545-.357-1.018-1.287-1.43-2.285-1.035-2.994 1.186-5.02 3.61-6.447 6.75-1.575 3.468-2.142 7.214-2.145 11.793.06.753.116 2.208.312 3.638zM46.11 26.916c5.451.836 9.662-4.774 8.77-9.825-4.955-.856-9.666 4.389-8.77 9.825zM78 55.545c-.075-.875-.13-2.15-.298-3.408-.556-4.148-1.95-7.947-4.688-11.191a13.641 13.641 0 00-15.006-4.068c-2.62.927-4.901 2.377-7.014 4.15-1.125.942-1.807.913-2.941 0-.43-.346-.84-.718-1.277-1.055-2.13-1.645-4.46-2.883-7.09-3.534-3.623-.896-7.05-.43-10.25 1.488-2.965 1.78-4.964 4.41-6.342 7.533-2.089 4.732-2.477 9.695-1.771 14.752.668 4.792 2.299 9.259 4.975 13.307 2.733 4.134 6.18 7.466 10.867 9.308 3.583 1.408 7.208 1.53 10.772-.04 1.069-.471 1.964-.45 3.006.031 2.823 1.304 5.78 1.495 8.782.74 4.897-1.232 8.626-4.21 11.638-8.122 4.41-5.728 6.46-12.299 6.637-19.89zM54.886 88l-1.48-.283c-.333-.064-.675-.098-.997-.2-.99-.313-1.97-.898-2.96-.913-.99-.015-1.975.58-2.982.821-4.359 1.044-8.524.356-12.474-1.642-6.429-3.25-10.738-8.518-13.69-14.997C18.1 65.956 16.97 60.856 17 55.54c.034-6.07 1.419-11.79 5.165-16.668 4.08-5.314 9.493-7.771 16.21-7.034 2.736.3 5.262 1.243 7.642 2.612.23.133.463.263.697.39.04.021.09.019.221.042a12.638 12.638 0 00-2.072-4.091c-2.807-3.73-6.55-5.663-11.184-5.928-.584-.033-1.242-.265-1.701-.62-.596-.461-.701-1.22-.393-1.939.34-.79.981-1.278 1.83-1.179 1.724.202 3.471.376 5.143.818 1.456.385 2.821 1.122 4.25 1.712.18-.7.34-1.507.595-2.283 1.993-6.052 8.335-9.547 14.479-8.011.87.218 1.376.73 1.59 1.602 1.698 6.919-2.813 13.862-9.785 15.047-.214.037-.425.088-.584.122l2.077 5.44c1.053-.58 2.161-1.264 3.328-1.821 4.972-2.376 10.046-2.763 15.173-.552 3.758 1.621 6.569 4.363 8.607 7.895 3.233 5.603 4.15 11.686 3.53 18.063-.583 6.008-2.486 11.567-5.786 16.6-3.237 4.935-7.39 8.843-12.978 10.95-1.436.541-2.989.772-4.488 1.145-.209.052-.418.099-.628.148h-3.053z"/></svg>