<svg width="261" height="41" xmlns="http://www.w3.org/2000/svg" xmlns:xlink="http://www.w3.org/1999/xlink"><defs><path id="a" d="M0 41h261V0H0z"/></defs><g fill="none" fill-rule="evenodd"><path d="M254.512 9.111l-.016.012c3.027 2.982 5.02 7.007 5.341 11.525.706 9.98-6.975 18.634-17.156 19.332a18.704 18.704 0 01-12.774-3.866l-.015.021a18.664 18.664 0 0013.9 4.819c10.189-.694 17.87-9.349 17.163-19.323-.364-5.055-2.8-9.484-6.443-12.52m-32.524 20.842c-.616.368-.752.919-.437 1.774.291.767.75 1.114 1.232.901.394-.164.46-.529.303-1.462l-.07-.362c-.157-.918-.187-1.317-.088-1.706.108-.449.344-.733.707-.897.878-.367 1.708.213 2.2 1.524.533 1.418.252 2.497-.797 2.956l-.256-.696c.724-.329.909-1.051.516-2.09-.32-.843-.815-1.217-1.348-.99-.43.183-.524.605-.366 1.563l.059.404.055.352c.119.708.132.961.065 1.268a1.1 1.1 0 01-.675.809c-.824.348-1.62-.17-2.063-1.356-.482-1.288-.22-2.243.702-2.688l.261.696m.182-7.39l3.067-2.822.02 1.041-2.598 2.36.842 1.013 1.826-.045.013.829-5.209.117-.017-.814 2.047-.05h.547l-.172-.213-.181-.198-2.298-2.727-.028-1.083zm1.848-7.061l2.08.77-.253.77-2.082-.77-3.734 1.191.312-.943 2.321-.687.281-.078c.119-.039.19-.053.397-.101a8.462 8.462 0 01-.42-.562l-1.428-2.046.298-.898 2.228 3.354m2.877-8.092l-1.133 1.278 3.372 2.55-.809.91-3.378-2.544-1.115 1.27-.768-.582 3.062-3.459zm6.978-4.37l-2.494 1.398.53.878 2.297-1.29.42.707-2.282 1.28.605 1.012 2.546-1.434.467.757-3.574 2.004-2.496-4.098 3.522-1.976zm5.757-.67a8.478 8.478 0 01-.59-1.096 9.546 9.546 0 01-.235 1.222l-.23 1.025 1.603-.257-.548-.893zm3.16 2.766l-1.442.096-.718-1.172-2.226.353-.306 1.32-1.377.341 1.454-5.868 1.36-.206 3.256 5.136zm7.835.938l-1.03-.377.393-1.42c.039-.161.107-.39.189-.682.08-.298.157-.528.203-.697.07-.19.13-.385.194-.594l.11-.336c-.286.482-.4.65-.664 1.033-.108.177-.21.318-.302.44l-1.38 1.893-.89-.235-.28-2.268c-.022-.116-.029-.278-.044-.51-.015-.294-.028-.522-.037-.679-.005-.125-.005-.314-.005-.576l-.12.576a54.99 54.99 0 01-.404 1.642l-.406 1.528-1.085-.165L246.295 0l1.636.308.232 2.205c.056.515.071.945.05 1.555a7.57 7.57 0 01.459-.784c.146-.217.268-.396.381-.566l1.281-1.79 1.561.514-1.27 4.632" fill="#FEFEFE"/><path d="M249.426 21.292c1.353-.896 2.483-1.369 3.186-1.344.415.01.912.137.912.632 0 .516-.503.945-1.483 1.29-.861.298-2.184.373-3.626.215.397-.346.73-.614 1.011-.793m-19.068 1.62c-.841-.057-1.251-.387-1.251-1.018 0-.08.057-2.087 4.77-2.318.536-.025 1.137-.04 2.052.06-.041 0-.539.449-.539.449l-.295.258c-1.13 1.005-3.036 2.684-4.737 2.57m10.193-7.576c-.566.49-1.696 1.545-2.789 2.562l-1.24 1.156a17.19 17.19 0 00-3.025-.265c-2.29 0-4.387.613-5.342 1.567-.362.365-.554.76-.538 1.17.024 1.08 1.293 1.625 1.677 1.77 2.034.734 3.736.517 5.532-.705.988-.674 2.178-1.749 3.11-2.624.724.163 1.547.374 2.428.626l.81.23c-1.053 1.009-2.137 2.076-3.138 2.934l-.076.065c-1.397 1.2-2.405 2.06-3.867 2.38-1.024.217-1.75.006-1.99-.13-.027.005-.055.041-.055.041.84.678 1.642 1.059 3.017.945 1.309-.113 2.819-.91 4.365-2.323l2.087-1.99 1.464-1.41a489.772 489.772 0 003.012.856c-.028 0-1.834 1.731-1.834 1.731l-1.566 1.523c-1.61 1.519-2.486 2.301-3.431 2.954-1.555 1.071-2.885 1.629-4.06 1.706-.603.04-1.484-.004-2.214-.413-.032-.01-.07.027-.07.027.785.663 1.766 1.453 3.44 1.408 1.894-.057 3.576-.94 6.193-3.273 1.191-1.063 2.375-2.253 3.418-3.304l1.94-1.918c1.281.28 2.422.394 3.687.369 1.842-.04 3.416-.893 3.434-1.878.016-.726-.598-1.114-.962-1.34a4.25 4.25 0 00-2.265-.643c-1.377 0-2.82.594-4.28 1.764l-.972.84a5.071 5.071 0 00-.355-.097l-2.703-.743c.8-.722 1.48-1.34 2.084-1.872 1.487-1.282 3.119-1.81 4.076-1.87.7-.048 1.914.015 2.411.36.025-.003.056-.053.056-.053-1.334-1.107-2.483-1.253-3.434-1.253-.931 0-2.434.285-4.275 1.669-.748.569-1.718 1.517-2.741 2.52 0-.01-1.367-.41-1.367-.41l-.33-.102-1.44-.427c.037 0 .822-.752.822-.752.971-.92 1.882-1.793 2.6-2.386 2.594-2.121 4.224-2.4 5.358-2.406 1.243-.004 2.233.247 2.94.743.017-.005.048-.047.048-.047-1.45-1.283-2.5-1.695-4.306-1.711-1.591-.012-3.49.852-5.344 2.43m11.856-12.619c.061.033.16.1.2.025.027-.051-.033-.097-.084-.124l-.126-.07-.07.125.08.044zm.068.411l-.082-.044-.023-.301-.08-.044-.122.22-.067-.037.265-.478.208.116c.084.045.158.115.1.218-.052.097-.136.093-.223.05l.024.3zm.29-.148a.419.419 0 00-.167-.571.418.418 0 00-.572.164.426.426 0 00.168.573.42.42 0 00.572-.166zm-.831-.4a.5.5 0 01.654-.264c.26.11.376.4.265.66a.489.489 0 01-.654.256.5.5 0 01-.265-.653zM70 24.335l2.339-10.29h.306l2.416 10.29H70zM76.98 9.11h-8.59l-6.175 24.296h5.906l1.111-4.631h6.596l1.113 4.631h6.518L76.98 9.111zm11.071 3.797c-.92 0-1.662-.274-2.226-.82-.566-.548-.848-1.287-.848-2.217 0-.957.282-1.702.848-2.236.564-.533 1.306-.8 2.226-.8.867 0 1.583.267 2.148.8.566.534.848 1.28.848 2.236 0 .93-.282 1.67-.848 2.216-.565.547-1.281.821-2.148.821m20.446 20.5V9.111h13.583v4.365h-8.046v5.467h7.307v4.329h-7.307v5.694h8.12v4.441z" fill="#FEFEFE"/><mask id="b" fill="#fff"><use xlink:href="#a"/></mask><path fill="#FEFEFE" mask="url(#b)" d="M84.977 33.407h6.07V15.185h-6.07zm59.939-1.518V14.097h3.48l.69 2.94h.108c.412-1.16 1.058-2.038 1.94-2.632.883-.593 2.098-.828 3.645-.708v5.192l-4.86.546v12.454h-5.003zm-50.076 0V14.097h3.481l.653 2.94h.108c.411-1.16 1.059-2.038 1.94-2.632.883-.593 2.109-.828 3.681-.708v5.192l-4.859.473v12.527H94.84zm72.18-5.009c-.541.869-1.327 1.303-2.359 1.303-1.031 0-1.823-.434-2.376-1.303-.553-.87-.83-2.097-.83-3.685 0-1.613.277-2.86.83-3.74.553-.881 1.345-1.322 2.376-1.322 1.032 0 1.818.44 2.358 1.321.541.882.81 2.128.81 3.741 0 1.588-.269 2.815-.81 3.685m3.76-10.552c-1.476-1.774-3.514-2.661-6.118-2.661-2.604 0-4.648.887-6.135 2.66-1.486 1.775-2.23 4.064-2.23 6.868 0 2.779.744 5.05 2.23 6.81 1.487 1.762 3.531 2.643 6.135 2.643 2.604 0 4.642-.88 6.117-2.642 1.474-1.762 2.21-4.032 2.21-6.81 0-2.805-.736-5.094-2.21-6.868m14.266 11.024c-.56.747-1.227 1.12-2 1.12-.449 0-.874-.051-1.271-.152-.4-.102-.837-.356-1.31-.759v-8.01c.399-.43.829-.734 1.29-.911a3.989 3.989 0 011.44-.266c.922 0 1.603.367 2.039 1.101.437.734.654 1.961.654 3.682 0 2.05-.28 3.449-.842 4.195m4.34-11.37c-1.21-1.544-2.837-2.315-4.881-2.315-.898 0-1.74.22-2.525.664-.785.443-1.453 1.157-2.001 2.145h-.111l-.563-2.391h-4.038v24.637h5.198v-6.796c.698.506 1.359.83 1.982.968.624.14 1.222.209 1.795.209 1.995 0 3.653-.785 4.976-2.354 1.32-1.568 1.982-4.125 1.982-7.668 0-3.188-.605-5.555-1.814-7.098m14.828 11.253a7.404 7.404 0 01-1.383 1.02 3.201 3.201 0 01-1.608.426c-.598 0-1.064-.167-1.402-.5-.335-.335-.503-.774-.503-1.317 0-.816.342-1.421 1.027-1.817.685-.396 1.65-.593 2.897-.593h.972v2.78zm3.42-11.976c-1.183-1.062-3.134-1.593-5.85-1.593-1.046 0-2.105.11-3.176.333a27.881 27.881 0 00-3.514 1.002l.86 3.707a22.077 22.077 0 012.747-.778c.834-.174 1.564-.26 2.186-.26 1.222 0 2.081.21 2.58.63.498.42.747.964.747 1.63v1.04h-1.682c-2.766 0-4.841.55-6.222 1.649-1.384 1.1-2.075 2.652-2.075 4.653 0 1.582.517 2.873 1.551 3.875 1.034 1 2.399 1.5 4.092 1.5.998 0 1.913-.215 2.747-.648.835-.432 1.589-1.106 2.262-2.02h.112l.598 2.26h3.812V20.713c0-2.571-.592-4.388-1.775-5.452zm-76.878 18.147c-1.683 0-3.03-.534-4.043-1.603-1.015-1.07-1.522-2.891-1.522-5.467V15.185h5.195v10.241c0 1.262.197 2.175.594 2.733.395.558.976.84 1.743.84.544 0 1.026-.136 1.447-.402.42-.267.754-.705 1-1.313V15.185h5.195v17.858h-3.932l-.557-2.332h-.111c-.841 1.045-1.645 1.755-2.412 2.132-.766.376-1.631.564-2.597.564M25.982 10.949a26.461 26.461 0 01-1.037 3.304c-.83 2.12-1.446 4.118-1.847 5.991-.402 1.873-.602 3.498-.602 4.874 0 1.157.028 2.073.082 2.749.057.674.14 1.259.25 1.755L17.64 32.64c-.553.33-1.1.598-1.64.805a4.452 4.452 0 01-1.598.31c-1.653 0-2.93-.964-3.833-2.892-.903-1.93-1.355-4.16-1.355-6.693 0-5.922 1.395-10.728 4.185-14.42 2.79-3.69 5.767-5.535 8.93-5.535 1.412 0 2.436.357 3.073 1.073.636.717.954 1.666.954 2.852 0 .826-.124 1.762-.374 2.81m14.236 8.27l-4.067 2.727v4.42l14.818-9.22c2.214-1.405 3.756-2.803 4.628-4.194.87-1.39 1.307-2.789 1.307-4.194 0-3.001-.955-5.211-2.864-6.63C52.13.708 49.336 0 45.656 0c-2.324 0-4.731.516-7.222 1.549-2.49 1.033-4.607 2.293-6.35 3.78-1.356-1.735-2.83-3.058-4.421-3.966C26.073.453 24.088 0 21.707 0c-6.17 0-11.324 2.65-15.46 7.952C2.11 13.255.027 19.06 0 25.367c.027 5.343 1.017 9.157 2.968 11.444 1.95 2.286 4.475 3.43 7.575 3.43 2.075 0 4.225-.552 6.453-1.654 2.228-1.101 4.67-2.767 7.326-4.999 1.08 2.287 2.587 3.966 4.524 5.04 1.936 1.075 4.289 1.613 7.056 1.613 3.93 0 7.498-1.089 10.709-3.264 3.21-2.178 6.004-4.38 8.384-6.611l-2.034-3.14-3.86 2.85c-1.467 1.074-3.126 2.066-4.981 2.976-1.854.909-3.68 1.362-5.478 1.362-2.302 0-3.992-.963-5.068-2.891-1.076-1.927-1.615-4.422-1.615-7.478 0-5.453 1.212-10.122 3.636-14.006 2.423-3.883 5.265-5.825 8.525-5.825 1.748 0 2.918.454 3.511 1.363.592.909.888 1.915.888 3.016 0 2.133-.542 3.872-1.626 5.22-1.085 1.35-3.309 3.152-6.675 5.406"/></g></svg>